<svg width="149" height="36" viewBox="0 0 149 36" fill="none" xmlns="http://www.w3.org/2000/svg">
<rect width="36" height="36" rx="6" fill="#18181B"/>
<path d="M15.2174 28L18.0195 19.6889H11L21.6351 8L18.833 16.3111H25.8525L15.2174 28Z" fill="white"/>
<path d="M50.012 24.252C48.536 24.252 47.354 23.82 46.466 22.956C45.59 22.08 45.152 20.802 45.152 19.122V16.278C45.152 14.598 45.59 13.326 46.466 12.462C47.354 11.586 48.536 11.148 50.012 11.148C51.476 11.148 52.592 11.562 53.36 12.39C54.14 13.206 54.53 14.322 54.53 15.738V15.828H53.378V15.702C53.378 14.67 53.102 13.83 52.55 13.182C52.01 12.522 51.164 12.192 50.012 12.192C48.848 12.192 47.936 12.546 47.276 13.254C46.628 13.962 46.304 14.958 46.304 16.242V19.158C46.304 20.442 46.628 21.438 47.276 22.146C47.936 22.854 48.848 23.208 50.012 23.208C51.164 23.208 52.01 22.884 52.55 22.236C53.102 21.576 53.378 20.73 53.378 19.698V19.428H54.53V19.662C54.53 21.078 54.14 22.2 53.36 23.028C52.592 23.844 51.476 24.252 50.012 24.252ZM57.1153 24V11.4H58.1953V16.782H58.4113C58.5553 16.494 58.7533 16.224 59.0053 15.972C59.2693 15.708 59.6053 15.498 60.0133 15.342C60.4333 15.174 60.9553 15.09 61.5793 15.09C62.2153 15.09 62.7973 15.222 63.3253 15.486C63.8533 15.75 64.2733 16.146 64.5853 16.674C64.9093 17.202 65.0713 17.868 65.0713 18.672V24H63.9913V18.744C63.9913 17.784 63.7513 17.1 63.2713 16.692C62.7913 16.272 62.1493 16.062 61.3453 16.062C60.4453 16.062 59.6953 16.356 59.0953 16.944C58.4953 17.532 58.1953 18.426 58.1953 19.626V24H57.1153ZM70.8187 24.252C70.2067 24.252 69.6487 24.15 69.1447 23.946C68.6527 23.73 68.2627 23.418 67.9747 23.01C67.6867 22.602 67.5427 22.11 67.5427 21.534C67.5427 20.946 67.6867 20.46 67.9747 20.076C68.2627 19.692 68.6527 19.404 69.1447 19.212C69.6367 19.02 70.1827 18.924 70.7827 18.924H73.9867V18.222C73.9867 17.514 73.7827 16.962 73.3747 16.566C72.9667 16.17 72.3727 15.972 71.5927 15.972C70.8247 15.972 70.2127 16.164 69.7567 16.548C69.3127 16.92 69.0127 17.424 68.8567 18.06L67.8127 17.754C67.9567 17.238 68.1847 16.776 68.4967 16.368C68.8087 15.948 69.2227 15.618 69.7387 15.378C70.2547 15.126 70.8727 15 71.5927 15C72.6967 15 73.5487 15.288 74.1487 15.864C74.7607 16.44 75.0667 17.244 75.0667 18.276V22.524C75.0667 22.884 75.2347 23.064 75.5707 23.064H76.4167V24H75.2647C74.8927 24 74.5987 23.892 74.3827 23.676C74.1667 23.448 74.0587 23.142 74.0587 22.758V22.632H73.8787C73.7227 22.896 73.5187 23.154 73.2667 23.406C73.0267 23.658 72.7087 23.862 72.3127 24.018C71.9167 24.174 71.4187 24.252 70.8187 24.252ZM70.8907 23.28C71.8147 23.28 72.5587 23.004 73.1227 22.452C73.6987 21.888 73.9867 21.096 73.9867 20.076V19.86H70.8007C70.1767 19.86 69.6547 19.998 69.2347 20.274C68.8267 20.538 68.6227 20.952 68.6227 21.516C68.6227 22.08 68.8327 22.518 69.2527 22.83C69.6847 23.13 70.2307 23.28 70.8907 23.28ZM78.4727 24V15.252H79.5167V16.35H79.7327C79.9007 15.954 80.1467 15.666 80.4707 15.486C80.8067 15.306 81.2687 15.216 81.8567 15.216H82.8827V16.224H81.7307C81.0707 16.224 80.5427 16.41 80.1467 16.782C79.7507 17.154 79.5527 17.736 79.5527 18.528V24H78.4727ZM84.3688 19.662V19.446C84.3688 18.522 84.5548 17.73 84.9268 17.07C85.3108 16.41 85.8208 15.9 86.4568 15.54C87.0928 15.18 87.8008 15 88.5808 15C89.5408 15 90.2848 15.192 90.8128 15.576C91.3528 15.948 91.7488 16.374 92.0008 16.854H92.2168V15.252H93.2248V26.232C93.2248 26.664 93.1108 27 92.8828 27.24C92.6548 27.48 92.3068 27.6 91.8388 27.6H85.8628V26.628H91.6228C91.9948 26.628 92.1808 26.448 92.1808 26.088V22.326H91.9648C91.8088 22.614 91.5868 22.896 91.2988 23.172C91.0228 23.448 90.6628 23.676 90.2188 23.856C89.7748 24.024 89.2288 24.108 88.5808 24.108C87.8008 24.108 87.0868 23.928 86.4388 23.568C85.8028 23.208 85.2988 22.698 84.9268 22.038C84.5548 21.366 84.3688 20.574 84.3688 19.662ZM88.8328 23.136C89.8288 23.136 90.6328 22.824 91.2448 22.2C91.8688 21.576 92.1808 20.718 92.1808 19.626V19.482C92.1808 18.378 91.8688 17.52 91.2448 16.908C90.6328 16.284 89.8288 15.972 88.8328 15.972C87.8488 15.972 87.0448 16.284 86.4208 16.908C85.7968 17.52 85.4848 18.378 85.4848 19.482V19.626C85.4848 20.718 85.7968 21.576 86.4208 22.2C87.0448 22.824 87.8488 23.136 88.8328 23.136ZM100.417 24.252C99.5168 24.252 98.7308 24.066 98.0588 23.694C97.3988 23.31 96.8828 22.776 96.5108 22.092C96.1388 21.408 95.9528 20.622 95.9528 19.734V19.518C95.9528 18.618 96.1388 17.832 96.5108 17.16C96.8828 16.476 97.3928 15.948 98.0408 15.576C98.7008 15.192 99.4508 15 100.291 15C101.107 15 101.827 15.174 102.451 15.522C103.087 15.858 103.585 16.35 103.945 16.998C104.305 17.634 104.485 18.396 104.485 19.284V19.86H97.0328C97.0688 20.952 97.3988 21.798 98.0228 22.398C98.6588 22.986 99.4568 23.28 100.417 23.28C101.233 23.28 101.863 23.094 102.307 22.722C102.763 22.35 103.111 21.894 103.351 21.354L104.323 21.786C104.143 22.182 103.891 22.572 103.567 22.956C103.255 23.328 102.847 23.64 102.343 23.892C101.839 24.132 101.197 24.252 100.417 24.252ZM97.0508 18.924H103.387C103.339 17.976 103.033 17.25 102.469 16.746C101.905 16.23 101.179 15.972 100.291 15.972C99.4148 15.972 98.6888 16.23 98.1128 16.746C97.5368 17.25 97.1828 17.976 97.0508 18.924ZM107.143 24V15.252H108.187V16.35H108.403C108.571 15.954 108.817 15.666 109.141 15.486C109.477 15.306 109.939 15.216 110.527 15.216H111.553V16.224H110.401C109.741 16.224 109.213 16.41 108.817 16.782C108.421 17.154 108.223 17.736 108.223 18.528V24H107.143ZM113.391 24V11.4H115.767V21.84H121.527V24H113.391ZM123.219 24V15.072H125.487V24H123.219ZM124.353 14.028C123.945 14.028 123.597 13.896 123.309 13.632C123.033 13.368 122.895 13.02 122.895 12.588C122.895 12.156 123.033 11.808 123.309 11.544C123.597 11.28 123.945 11.148 124.353 11.148C124.773 11.148 125.121 11.28 125.397 11.544C125.673 11.808 125.811 12.156 125.811 12.588C125.811 13.02 125.673 13.368 125.397 13.632C125.121 13.896 124.773 14.028 124.353 14.028ZM128 24V15.072H130.232V16.242H130.556C130.7 15.93 130.97 15.636 131.366 15.36C131.762 15.072 132.362 14.928 133.166 14.928C133.862 14.928 134.468 15.09 134.984 15.414C135.512 15.726 135.92 16.164 136.208 16.728C136.496 17.28 136.64 17.928 136.64 18.672V24H134.372V18.852C134.372 18.18 134.204 17.676 133.868 17.34C133.544 17.004 133.076 16.836 132.464 16.836C131.768 16.836 131.228 17.07 130.844 17.538C130.46 17.994 130.268 18.636 130.268 19.464V24H128ZM143.16 24.252C142.272 24.252 141.486 24.066 140.802 23.694C140.13 23.31 139.602 22.776 139.218 22.092C138.846 21.396 138.66 20.58 138.66 19.644V19.428C138.66 18.492 138.846 17.682 139.218 16.998C139.59 16.302 140.112 15.768 140.784 15.396C141.456 15.012 142.236 14.82 143.124 14.82C144 14.82 144.762 15.018 145.41 15.414C146.058 15.798 146.562 16.338 146.922 17.034C147.282 17.718 147.462 18.516 147.462 19.428V20.202H140.964C140.988 20.814 141.216 21.312 141.648 21.696C142.08 22.08 142.608 22.272 143.232 22.272C143.868 22.272 144.336 22.134 144.636 21.858C144.936 21.582 145.164 21.276 145.32 20.94L147.174 21.912C147.006 22.224 146.76 22.566 146.436 22.938C146.124 23.298 145.704 23.61 145.176 23.874C144.648 24.126 143.976 24.252 143.16 24.252ZM140.982 18.51H145.158C145.11 17.994 144.9 17.58 144.528 17.268C144.168 16.956 143.694 16.8 143.106 16.8C142.494 16.8 142.008 16.956 141.648 17.268C141.288 17.58 141.066 17.994 140.982 18.51Z" fill="#18181B"/>
</svg>
